<?xml version="1.0" encoding="UTF-8" standalone="no"?>
<!DOCTYPE svg PUBLIC "-//W3C//DTD SVG 1.1//EN" "http://www.w3.org/Graphics/SVG/1.1/DTD/svg11.dtd">
<svg width="100%" height="100%" viewBox="0 0 800 600" version="1.1" xmlns="http://www.w3.org/2000/svg" xmlns:xlink="http://www.w3.org/1999/xlink" xml:space="preserve" xmlns:serif="http://www.serif.com/" style="fill-rule:evenodd;clip-rule:evenodd;stroke-linecap:round;stroke-linejoin:round;stroke-miterlimit:1.5;">
    <g transform="matrix(0.999389,0.0349568,-0.0349568,0.999389,7.70838,-0.045326)">
        <path d="M324.01,183.307C323.9,181.088 322.07,179.345 319.849,179.343C317.627,179.341 315.794,181.081 315.681,183.3C313.171,232.337 310.276,288.915 309.193,310.085C308.914,315.53 311.022,320.826 314.966,324.59C314.967,324.591 314.967,324.591 314.967,324.591C317.724,327.222 322.072,327.185 324.784,324.508C324.958,324.336 325.132,324.163 325.307,323.99C328.741,320.599 330.567,315.906 330.328,311.086C329.323,290.753 326.474,233.137 324.01,183.307Z" style="fill:rgb(85,84,84);stroke:black;stroke-width:1px;"/>
    </g>
    <g transform="matrix(0.999446,-0.0332709,0.0332709,0.999446,151.527,20.7935)">
        <path d="M324.01,183.307C323.9,181.088 322.07,179.345 319.849,179.343C317.627,179.341 315.794,181.081 315.681,183.3C313.171,232.337 310.276,288.915 309.193,310.085C308.914,315.53 311.022,320.826 314.966,324.59C314.967,324.591 314.967,324.591 314.967,324.591C317.724,327.222 322.072,327.185 324.784,324.508C324.958,324.336 325.132,324.163 325.307,323.99C328.741,320.599 330.567,315.906 330.328,311.086C329.323,290.753 326.474,233.137 324.01,183.307Z" style="fill:rgb(85,84,84);stroke:black;stroke-width:1px;"/>
    </g>
    <g transform="matrix(1,0,0,1,0,-23)">
        <path d="M447.289,240.089C418.574,221.262 381.426,221.262 352.711,240.089C309.823,268.209 246.704,309.595 202.319,338.696C197.483,341.867 195.577,348.023 197.774,353.371C199.972,358.719 205.655,361.757 211.323,360.612C254.635,351.862 311.862,340.301 351.889,332.215C383.642,325.801 416.358,325.801 448.111,332.215C488.138,340.301 545.365,351.862 588.677,360.612C594.345,361.757 600.028,358.719 602.226,353.371C604.423,348.023 602.517,341.867 597.681,338.696C553.296,309.595 490.177,268.209 447.289,240.089Z" style="fill:rgb(118,118,118);stroke:black;stroke-width:1px;"/>
    </g>
    <path d="M414.532,139.381C412.291,133.307 406.5,129.276 400.026,129.281C393.552,129.287 387.768,133.329 385.537,139.407C381.109,151.474 376.658,163.601 373.807,171.369C371.764,176.936 370.719,182.818 370.719,188.748L370.719,330.638C370.719,343.092 375.387,355.092 383.802,364.272C385.056,365.64 386.325,367.024 387.572,368.384C390.769,371.871 395.28,373.86 400.011,373.866C404.742,373.872 409.259,371.896 412.465,368.418C413.722,367.054 415.002,365.665 416.266,364.294C424.737,355.103 429.441,343.061 429.441,330.561C429.441,293.79 429.441,215.355 429.441,188.793C429.441,182.834 428.385,176.922 426.322,171.332C423.453,163.557 418.981,151.438 414.532,139.381Z" style="fill:rgb(185,185,185);stroke:black;stroke-width:1px;"/>
    <path d="M404.236,140.271C403.557,138.537 401.883,137.397 400.02,137.402C398.158,137.406 396.489,138.555 395.82,140.293C391.432,151.679 384.788,168.923 381.957,176.27C381.18,178.286 382.006,180.566 383.893,181.617C385.028,182.249 386.374,182.998 387.798,183.791C395.391,188.021 404.625,188.051 412.246,183.87C413.744,183.048 415.163,182.269 416.352,181.617C418.263,180.569 419.098,178.265 418.305,176.236C415.421,168.865 408.683,151.639 404.236,140.271Z" style="fill:rgb(247,255,0);stroke:black;stroke-width:1px;"/>
</svg>
