<?xml version="1.0" encoding="UTF-8" standalone="no"?>
<!DOCTYPE svg PUBLIC "-//W3C//DTD SVG 1.1//EN" "http://www.w3.org/Graphics/SVG/1.1/DTD/svg11.dtd">
<svg width="100%" height="100%" viewBox="0 0 750 110" version="1.1" xmlns="http://www.w3.org/2000/svg" xmlns:xlink="http://www.w3.org/1999/xlink" xml:space="preserve" xmlns:serif="http://www.serif.com/" style="fill-rule:evenodd;clip-rule:evenodd;stroke-linecap:round;stroke-linejoin:round;stroke-miterlimit:1.5;">
    <g transform="matrix(1,0,0,1,-9.91599,-9.93699)">
        <path d="M9.916,14.949C9.916,12.192 12.148,9.955 14.905,9.949C17.425,9.943 19.956,9.937 19.956,9.937L19.956,30.083C19.956,30.083 25.599,30.052 29.972,30.028C31.303,30.02 32.582,30.544 33.526,31.482C34.469,32.421 35,33.697 35,35.028L35,40L19.956,39.89L19.956,60.129L14.916,60.129C13.59,60.129 12.318,59.602 11.38,58.664C10.443,57.727 9.916,56.455 9.916,55.129C9.916,45.515 9.916,24.554 9.916,14.949Z" style="fill:white;fill-opacity:0.5;stroke:black;stroke-width:1px;"/>
    </g>
    <g transform="matrix(1,0,0,1,-9.91599,-9.93699)">
        <path d="M59.919,14.948C59.919,13.62 60.448,12.347 61.388,11.409C62.328,10.471 63.603,9.945 64.931,9.948C67.445,9.954 69.962,9.96 69.962,9.96L69.962,29.929L85,29.929L85,39.945L69.962,39.945L69.962,59.931L64.919,59.931C63.593,59.931 62.321,59.405 61.384,58.467C60.446,57.529 59.919,56.257 59.919,54.931C59.919,45.356 59.919,24.533 59.919,14.948Z" style="fill:white;fill-opacity:0.5;stroke:black;stroke-width:1px;"/>
    </g>
    <g transform="matrix(1,0,0,1,-9.91599,-9.93699)">
        <path d="M74.928,9.96L94.928,9.96C96.254,9.96 97.526,10.487 98.463,11.424C99.401,12.362 99.928,13.634 99.928,14.96C99.928,21.6 99.928,32.5 99.928,32.5L89.886,32.5L89.886,19.946L74.928,19.946L74.928,9.96Z" style="fill:white;fill-opacity:0.5;stroke:black;stroke-width:1px;"/>
    </g>
    <g transform="matrix(1,0,0,1,-9.91599,-9.93699)">
        <path d="M109.961,14.96C109.961,12.198 112.199,9.96 114.961,9.96C122.646,9.96 137.277,9.96 144.962,9.96C147.724,9.96 149.962,12.198 149.962,14.96C149.962,17.454 149.962,19.946 149.962,19.946L119.962,19.946L119.962,49.964L149.962,49.964L149.962,54.954C149.962,57.715 147.724,59.954 144.962,59.954C137.277,59.954 122.646,59.954 114.961,59.954C112.199,59.954 109.961,57.715 109.961,54.954C109.961,45.375 109.961,24.539 109.961,14.96Z" style="fill:white;fill-opacity:0.5;stroke:black;stroke-width:1px;"/>
    </g>
    <g transform="matrix(1,0,0,1,-9.91599,-9.93699)">
        <path d="M139.966,29.993L149.962,30L149.962,40L139.966,40L139.966,29.993Z" style="fill:white;fill-opacity:0.5;stroke:black;stroke-width:1px;"/>
    </g>
    <g transform="matrix(1,0,0,1,-9.91599,-9.93699)">
        <path d="M160,15.023C160,12.261 162.239,10.023 165,10.023C167.5,10.023 170,10.023 170,10.023L170,60.058L165,60.058C162.239,60.058 160,57.819 160,55.058C160,45.471 160,24.609 160,15.023Z" style="fill:white;fill-opacity:0.5;stroke:black;stroke-width:1px;"/>
    </g>
    <g transform="matrix(1,0,0,1,-9.91599,-9.93699)">
        <path d="M175,10.023L194.982,10.023C197.743,10.023 199.982,12.261 199.982,15.023C199.982,24.599 199.982,45.424 199.982,55C199.982,57.761 197.743,60 194.982,60C187.691,60 175,60 175,60L175,50L189.968,50L189.968,20L175,20L175,10.023Z" style="fill:white;fill-opacity:0.5;stroke:black;stroke-width:1px;"/>
    </g>
    <g transform="matrix(1,0,0,1,-9.91599,-9.93699)">
        <path d="M210.02,15.023C210.02,13.697 210.547,12.425 211.484,11.487C212.422,10.55 213.694,10.023 215.02,10.023C222.696,10.023 237.301,10.023 244.978,10.023C246.304,10.023 247.576,10.55 248.513,11.487C249.451,12.425 249.978,13.697 249.978,15.023C249.978,17.512 249.978,19.998 249.978,19.998L219.96,19.998L219.96,25.02L210.02,25.02L210.02,15.023Z" style="fill:white;fill-opacity:0.5;stroke:black;stroke-width:1px;"/>
    </g>
    <g transform="matrix(1,0,0,1,-9.91599,-9.93699)">
        <path d="M210.02,29.979L249.978,29.979L249.978,39.935L210.02,39.935L210.02,29.979" style="fill:white;fill-opacity:0.5;stroke:black;stroke-width:1px;"/>
    </g>
    <g transform="matrix(1,0,0,1,-9.91599,-9.93699)">
        <path d="M99.928,37.5L99.928,54.974C99.928,57.735 97.689,59.974 94.928,59.974C87.63,59.974 74.92,59.974 74.92,59.974L74.92,50.013L89.905,50.013L89.905,37.5L99.928,37.5Z" style="fill:white;fill-opacity:0.5;stroke:black;stroke-width:1px;"/>
    </g>
    <g transform="matrix(1,0,0,1,-9.91599,-9.93699)">
        <path d="M25,10L45,10C47.761,10 50,12.239 50,15C50,24.581 50,45.424 50,55.005C50,57.767 47.761,60.005 45,60.005C42.514,60.005 40.034,60.005 40.034,60.005L40.034,20.013L30,20.013C27.239,20.013 25,17.774 25,15.013C25,12.508 25,10 25,10Z" style="fill:white;fill-opacity:0.5;stroke:black;stroke-width:1px;"/>
    </g>
    <g transform="matrix(1,0,0,1,-9.91599,-9.93699)">
        <path d="M250,60L250,49.975L220.016,49.975L220.016,45.002L210,45.002L210,55C210,57.761 212.239,60 215,60C225.73,60 250,60 250,60" style="fill:white;fill-opacity:0.5;stroke:black;stroke-width:1px;"/>
    </g>
    <g transform="matrix(1,0,0,1,-9.91599,-9.93699)">
        <path d="M259.997,55C259.997,56.326 260.523,57.598 261.461,58.536C262.399,59.473 263.671,60 264.997,60C267.478,60 269.952,60 269.952,60L269.952,39.998L295,39.998C296.326,39.998 297.598,39.471 298.536,38.533C299.473,37.596 300,36.324 300,34.998C300,32.487 300,29.972 300,29.972L259.997,29.972L259.997,55Z" style="fill:white;fill-opacity:0.5;stroke:black;stroke-width:1px;"/>
    </g>
    <g transform="matrix(1,0,0,1,-9.91599,-9.93699)">
        <path d="M259.997,14.987C259.997,12.228 262.23,9.991 264.989,9.987C272.67,9.974 287.302,9.951 294.992,9.939C296.319,9.937 297.593,10.462 298.533,11.4C299.472,12.338 300,13.611 300,14.939L300,19.918L269.957,19.918L269.957,24.903L259.997,24.903L259.997,14.987Z" style="fill:white;fill-opacity:0.5;stroke:black;stroke-width:1px;"/>
    </g>
    <g transform="matrix(1,0,0,1,-9.91599,-9.93699)">
        <path d="M320,25L320,50.009L335,50.009L335,59.995L315,59.995C312.239,59.995 310,57.756 310,54.995L310,25" style="fill:white;fill-opacity:0.5;stroke:black;stroke-width:1px;"/>
    </g>
    <g transform="matrix(1,0,0,1,-9.91599,-9.93699)">
        <path d="M320,25L310,25" style="fill:none;stroke:black;stroke-width:1px;"/>
    </g>
    <g transform="matrix(1,0,0,1,-9.91599,-9.93699)">
        <path d="M310.031,14.985C310.031,13.658 310.558,12.386 311.496,11.448C312.434,10.511 313.706,9.984 315.033,9.985C322.713,9.988 337.325,9.994 345.002,9.998C347.763,9.999 350,12.237 350,14.998C350,17.499 350,20 350,20L310.031,20L310.031,14.985Z" style="fill:white;fill-opacity:0.5;stroke:black;stroke-width:1px;"/>
    </g>
    <g transform="matrix(1,0,0,1,-9.91599,-9.93699)">
        <path d="M330,30.003L350,29.999L350,54.963C350,56.289 349.473,57.56 348.536,58.498C347.598,59.436 346.326,59.963 345,59.963C342.521,59.963 340.051,59.963 340.051,59.963L340.051,39.972L330,39.972L330,30.003Z" style="fill:white;fill-opacity:0.5;stroke:black;stroke-width:1px;"/>
    </g>
    <g transform="matrix(1,0,0,1,-9.91599,-9.93699)">
        <path d="M359.97,15.019C359.97,13.692 360.497,12.42 361.435,11.483C362.373,10.545 363.646,10.018 364.972,10.019C367.476,10.02 369.98,10.021 369.98,10.021L369.98,29.991L379.976,29.991L379.976,39.953L369.98,39.953L369.98,59.941L364.97,59.941C363.644,59.941 362.372,59.414 361.435,58.477C360.497,57.539 359.97,56.267 359.97,54.941C359.97,45.375 359.97,24.586 359.97,15.019Z" style="fill:white;fill-opacity:0.5;stroke:black;stroke-width:1px;"/>
    </g>
    <g transform="matrix(1,0,0,1,-9.91599,-9.93699)">
        <path d="M409.952,10.017L449.948,10.021L449.948,20.057L409.952,20.057L409.952,10.017Z" style="fill:white;fill-opacity:0.5;stroke:black;stroke-width:1px;"/>
    </g>
    <g transform="matrix(1,0,0,1,-9.91599,-9.93699)">
        <path d="M429.989,25.005L439.976,25.003L439.976,45.049L429.989,45.049L429.989,25.005Z" style="fill:white;fill-opacity:0.5;stroke:black;stroke-width:1px;"/>
    </g>
    <g transform="matrix(1,0,0,1,-9.91599,-9.93699)">
        <path d="M410,50L449.974,50.05L449.974,60.069L410,60L410,50Z" style="fill:white;fill-opacity:0.5;stroke:black;stroke-width:1px;"/>
    </g>
    <g transform="matrix(1,0,0,1,-9.91599,-9.93699)">
        <path d="M384.995,29.991L390.006,29.991L390.006,10.014L395.013,10.014C397.774,10.014 400.013,12.253 400.013,15.014C400.013,24.595 400.013,45.439 400.013,55.02C400.013,57.781 397.774,60.02 395.013,60.02C392.51,60.02 390.006,60.02 390.006,60.02L390.006,39.982L384.995,39.982L384.995,29.991Z" style="fill:white;fill-opacity:0.5;stroke:black;stroke-width:1px;"/>
    </g>
    <g transform="matrix(1,0,0,1,-9.91599,-9.93699)">
        <path d="M459.967,14.988C459.967,13.662 460.494,12.39 461.431,11.452C462.369,10.514 463.641,9.988 464.967,9.988C472.649,9.988 487.271,9.988 494.953,9.988C497.714,9.988 499.953,12.227 499.953,14.988C499.953,17.481 499.953,19.972 499.953,19.972L459.967,19.972L459.967,14.988Z" style="fill:white;fill-opacity:0.5;stroke:black;stroke-width:1px;"/>
    </g>
    <g transform="matrix(1,0,0,1,-9.91599,-9.93699)">
        <path d="M499.953,24.965L499.953,55.016C499.953,56.342 499.426,57.613 498.488,58.551C497.551,59.489 496.279,60.016 494.953,60.016C487.271,60.016 472.652,60.016 464.971,60.016C463.645,60.016 462.373,59.489 461.435,58.551C460.498,57.613 459.971,56.342 459.971,55.016C459.971,52.536 459.971,50.064 459.971,50.064L489.981,50.064L489.981,24.965L499.953,24.965Z" style="fill:white;fill-opacity:0.5;stroke:black;stroke-width:1px;"/>
    </g>
    <g transform="matrix(1,0,0,1,-9.91599,-9.93699)">
        <path d="M514.991,10.018C512.233,10.018 509.996,12.251 509.991,15.008C509.972,24.583 509.933,45.432 509.914,55.022C509.912,56.35 510.438,57.624 511.376,58.563C512.314,59.503 513.587,60.031 514.914,60.031C517.443,60.031 519.98,60.031 519.98,60.031L519.98,10.018L514.991,10.018Z" style="fill:white;fill-opacity:0.5;stroke:black;stroke-width:1px;"/>
    </g>
    <g transform="matrix(1,0,0,1,-9.91599,-9.93699)">
        <path d="M540.019,10.026C540.019,10.026 542.508,10.022 545.002,10.018C546.329,10.016 547.603,10.542 548.542,11.48C549.482,12.418 550.01,13.691 550.01,15.018L550.01,19.999L540.019,19.999L540.019,10.026Z" style="fill:white;fill-opacity:0.5;stroke:black;stroke-width:1px;"/>
    </g>
    <g transform="matrix(1,0,0,1,-9.91599,-9.93699)">
        <path d="M540.019,59.973C540.019,59.973 542.503,59.981 544.994,59.989C546.323,59.993 547.599,59.468 548.54,58.53C549.481,57.592 550.01,56.317 550.01,54.989C550.01,52.477 550.01,49.965 550.01,49.965L540.019,49.965L540.019,59.973Z" style="fill:white;fill-opacity:0.5;stroke:black;stroke-width:1px;"/>
    </g>
    <g transform="matrix(1,0,0,1,-9.91599,-9.93699)">
        <rect x="525.042" y="30" width="14.977" height="10" style="fill:white;fill-opacity:0.5;stroke:black;stroke-width:1px;"/>
    </g>
    <g transform="matrix(1,0,0,1,-9.91599,-9.93699)">
        <path d="M560,14.96C560,12.202 562.234,9.965 564.992,9.96C567.494,9.956 569.999,9.952 569.999,9.952L569.999,49.969L599.988,49.969L599.988,54.929C599.988,56.255 599.461,57.526 598.523,58.464C597.586,59.402 596.314,59.929 594.988,59.929C587.305,59.929 572.683,59.929 565,59.929C563.674,59.929 562.402,59.402 561.465,58.464C560.527,57.526 560,56.255 560,54.929C560,45.353 560,24.529 560,14.96Z" style="fill:white;fill-opacity:0.5;stroke:black;stroke-width:1px;"/>
    </g>
    <g transform="matrix(1,0,0,1,-9.91599,-9.93699)">
        <path d="M590.03,9.952C590.03,9.952 592.511,9.956 594.996,9.96C597.754,9.965 599.988,12.202 599.988,14.96C599.988,17.454 599.988,19.948 599.988,19.948L590.03,19.948L590.03,9.952Z" style="fill:white;fill-opacity:0.5;stroke:black;stroke-width:1px;"/>
    </g>
    <g transform="matrix(1,0,0,1,-9.91599,-9.93699)">
        <path d="M615.01,9.952C612.249,9.952 610.011,12.19 610.01,14.951C610.008,24.538 610.003,45.409 610.001,54.999C610.001,56.325 610.527,57.597 611.465,58.535C612.403,59.473 613.675,60 615.001,60C617.501,60 620,60 620,60L620,20L625,20L625,30L635.003,30L635.003,20L640.026,20L640.026,60L644.957,60C647.718,60 649.957,57.761 649.957,55C649.957,45.411 649.957,24.541 649.957,14.952C649.957,12.19 647.718,9.952 644.957,9.952C637.282,9.952 622.684,9.952 615.01,9.952Z" style="fill:white;fill-opacity:0.5;stroke:black;stroke-width:1px;"/>
    </g>
    <g transform="matrix(1,0,0,1,40.084,-9.93699)">
        <path d="M615.01,9.952C612.249,9.952 610.011,12.19 610.01,14.951C610.008,24.538 610.003,45.409 610.001,54.999C610.001,56.325 610.527,57.597 611.465,58.535C612.403,59.473 613.675,60 615.001,60C617.501,60 620,60 620,60L620,20L640.026,20L640.026,60L644.957,60C647.718,60 649.957,57.761 649.957,55C649.957,45.411 649.957,24.541 649.957,14.952C649.957,12.19 647.718,9.952 644.957,9.952C637.282,9.952 622.684,9.952 615.01,9.952Z" style="fill:white;fill-opacity:0.5;stroke:black;stroke-width:1px;"/>
    </g>
    <g transform="matrix(-1,-1.22465e-16,1.22465e-16,-1,900.041,120.063)">
        <path d="M615.01,9.952C612.249,9.952 610.011,12.19 610.01,14.951C610.008,24.538 610.003,45.409 610.001,54.999C610.001,56.325 610.527,57.597 611.465,58.535C612.403,59.473 613.675,60 615.001,60C617.501,60 620,60 620,60L620,20L640.026,20L640.026,60L644.957,60C647.718,60 649.957,57.761 649.957,55C649.957,45.411 649.957,24.541 649.957,14.952C649.957,12.19 647.718,9.952 644.957,9.952C637.282,9.952 622.684,9.952 615.01,9.952Z" style="fill:white;fill-opacity:0.5;stroke:black;stroke-width:1px;"/>
    </g>
    <g transform="matrix(1,0,0,1,-9.91599,-9.93699)">
        <path d="M310,75C310,72.239 312.239,70 315,70L320,70L320,105C320,107.761 317.761,110 315,110L310,110L310,75Z" style="fill:white;fill-opacity:0.5;stroke:black;stroke-width:1px;"/>
    </g>
    <g transform="matrix(1,0,0,1,20.084,-9.93699)">
        <path d="M310,70L315,70C317.761,70 320,72.239 320,75L320,110L315,110C312.239,110 310,107.761 310,105L310,70Z" style="fill:white;fill-opacity:0.5;stroke:black;stroke-width:1px;"/>
    </g>
    <g transform="matrix(1,0,0,1,-9.91599,-9.93699)">
        <path d="M320,115C320,112.239 322.239,110 325,110L335,110C337.761,110 340,112.239 340,115L340,120.016L320,120.016L320,115Z" style="fill:white;fill-opacity:0.5;stroke:black;stroke-width:1px;"/>
    </g>
    <g transform="matrix(1,0,0,1,-9.91599,-9.93699)">
        <path d="M359.998,75.024C359.998,72.264 362.234,70.026 364.994,70.024C367.51,70.022 370.034,70.02 370.034,70.02L370.034,110.053L389.994,110.053L389.994,70.02C389.994,70.02 392.514,70.022 395.028,70.024C397.788,70.026 400.024,72.264 400.024,75.024C400.024,84.61 400.024,105.482 400.024,115.071C400.024,117.833 397.785,120.071 395.024,120.071C387.334,120.071 372.688,120.071 364.998,120.071C362.237,120.071 359.998,117.833 359.998,115.071C359.998,105.482 359.998,84.61 359.998,75.024Z" style="fill:white;fill-opacity:0.5;stroke:black;stroke-width:1px;"/>
    </g>
    <g transform="matrix(1,0,0,1,-9.91599,-9.93699)">
        <path d="M410.018,75.02C410.018,73.694 410.545,72.422 411.482,71.485C412.42,70.547 413.692,70.02 415.018,70.02C417.526,70.02 420.036,70.02 420.036,70.02L420.036,85.028L410.018,85.028L410.018,75.02Z" style="fill:white;fill-opacity:0.5;stroke:black;stroke-width:1px;"/>
    </g>
    <g transform="matrix(1,0,0,1,-9.91599,-9.93699)">
        <path d="M410.018,115.027C410.018,117.779 412.242,120.014 414.995,120.027C417.51,120.039 420.036,120.051 420.036,120.051L420.036,105.013L410.018,105.013L410.018,115.027Z" style="fill:white;fill-opacity:0.5;stroke:black;stroke-width:1px;"/>
    </g>
    <g transform="matrix(1,0,0,1,-9.91599,-9.93699)">
        <path d="M459.979,70.027L469.986,70.027L469.986,85.042L459.979,85.042L459.979,70.027Z" style="fill:white;fill-opacity:0.5;stroke:black;stroke-width:1px;"/>
    </g>
    <g transform="matrix(1,0,0,1,-9.91599,-9.93699)">
        <path d="M489.976,70.027L499.944,70.027L499.944,120.051L489.976,120.051L489.976,100.076L474.938,100.076L474.938,90.068L489.976,90.068L489.976,70.027Z" style="fill:white;fill-opacity:0.5;stroke:black;stroke-width:1px;"/>
    </g>
    <g transform="matrix(1,0,0,1,-9.91599,-9.93699)">
        <path d="M440.043,120.051L445.062,120.051C447.823,120.051 450.062,117.812 450.062,115.051C450.062,110.699 450.062,105.083 450.062,105.083L440.043,105.083L440.043,120.051Z" style="fill:white;fill-opacity:0.5;stroke:black;stroke-width:1px;"/>
    </g>
    <g transform="matrix(1,0,0,1,-9.91599,-9.93699)">
        <path d="M440.043,70.079C440.043,70.079 442.539,70.068 445.04,70.057C446.37,70.051 447.647,70.576 448.59,71.514C449.532,72.452 450.062,73.727 450.062,75.057C450.062,79.418 450.062,85.039 450.062,85.039L440.043,85.039L440.043,70.079Z" style="fill:white;fill-opacity:0.5;stroke:black;stroke-width:1px;"/>
    </g>
    <g transform="matrix(1,0,0,1,-9.91599,-9.93699)">
        <path d="M425.034,89.973L435,89.997L435,99.963L425.034,99.963L425.034,89.973Z" style="fill:white;fill-opacity:0.5;stroke:black;stroke-width:1px;"/>
    </g>
    <g transform="matrix(1,0,0,1,-9.91599,-9.93699)">
        <rect x="375.525" y="70.028" width="9.541" height="29.969" style="fill:white;fill-opacity:0.5;stroke:black;stroke-width:1px;"/>
    </g>
    <g transform="matrix(1,0,0,1,-9.91599,-9.93699)">
        <path d="M710.044,15.018C710.044,12.256 712.283,10.018 715.044,10.018C722.723,10.018 737.333,10.018 745.012,10.017C746.338,10.017 747.61,10.544 748.548,11.482C749.485,12.42 750.012,13.691 750.012,15.017C750.012,24.595 750.012,45.424 750.012,55.001C750.012,56.328 749.485,57.599 748.548,58.537C747.61,59.475 746.338,60.002 745.012,60.001C737.333,60.001 722.723,60.001 715.044,60.001C713.718,60.002 712.446,59.475 711.509,58.537C710.571,57.599 710.044,56.328 710.044,55.001C710.044,45.424 710.044,24.595 710.044,15.018Z" style="fill:white;fill-opacity:0.5;stroke:black;stroke-width:1px;"/>
    </g>
    <g transform="matrix(1,0,0,1,-9.91599,-9.93699)">
        <path d="M10.027,74.968C10.027,73.642 10.554,72.369 11.492,71.432C12.43,70.494 13.702,69.967 15.028,69.968C22.695,69.971 37.267,69.976 44.931,69.979C47.692,69.98 49.929,72.218 49.929,74.979C49.929,80.522 49.929,89.41 49.929,94.953C49.929,96.279 49.402,97.551 48.465,98.489C47.527,99.426 46.255,99.953 44.929,99.953C36.412,99.953 20,99.953 20,99.953L20,119.962L15.027,119.962C12.265,119.962 10.027,117.724 10.027,114.962L10.027,74.968Z" style="fill:white;fill-opacity:0.5;stroke:black;stroke-width:1px;"/>
    </g>
    <g transform="matrix(1,0,0,1,-9.91599,-9.93699)">
        <path d="M99.957,74.974C99.953,72.215 97.715,69.981 94.957,69.981C87.286,69.981 72.687,69.981 65.013,69.981C62.251,69.981 60.013,72.22 60.013,74.981C60.013,84.563 60.013,105.411 60.013,114.993C60.013,117.755 62.251,119.993 65.013,119.993C72.313,119.993 85.029,119.993 85.029,119.993L85.029,105L94.993,105C96.32,105 97.593,104.472 98.531,103.533C99.469,102.594 99.995,101.32 99.993,99.993C99.983,93.332 99.966,81.627 99.957,74.974Z" style="fill:white;fill-opacity:0.5;stroke:black;stroke-width:1px;"/>
    </g>
    <g transform="matrix(1,0,0,1,-9.91599,-9.93699)">
        <path d="M70.045,79.955L90.025,79.966L90.025,100L80.023,100L80.023,110L70.045,110L70.045,79.955Z" style="fill:white;fill-opacity:0.5;stroke:black;stroke-width:1px;"/>
    </g>
    <g transform="matrix(1,0,0,1,-9.91599,-9.93699)">
        <path d="M94.949,119.993C97.711,119.993 99.949,117.755 99.949,114.993C99.949,112.493 99.949,109.992 99.949,109.992L89.996,109.992L89.996,119.993L94.949,119.993Z" style="fill:white;fill-opacity:0.5;stroke:black;stroke-width:1px;"/>
    </g>
    <g transform="matrix(1,0,0,1,-9.91599,-9.93699)">
        <rect x="20" y="79.975" width="20.025" height="10.001" style="fill:white;fill-opacity:0.5;stroke:black;stroke-width:1px;"/>
    </g>
    <g transform="matrix(1,0,0,1,-9.91599,-9.93699)">
        <path d="M720,19.982L739.957,20L739.957,50.024L720,50.024L720,19.982Z" style="fill:white;fill-opacity:0.5;stroke:black;stroke-width:1px;"/>
    </g>
    <g transform="matrix(1,0,0,1,-9.91599,-9.93699)">
        <path d="M110,75C110,72.239 112.239,70 115,70L145,70C147.761,70 150,72.239 150,75C150,83.543 150,100.036 150,100.036L125,100.036L125,120L115,120C113.674,120 112.402,119.473 111.464,118.536C110.527,117.598 110,116.326 110,115C110,105.42 110,84.58 110,75Z" style="fill:white;fill-opacity:0.5;stroke:black;stroke-width:1px;"/>
    </g>
    <g transform="matrix(1,0,0,1,-9.91599,-9.93699)">
        <rect x="120" y="80" width="20" height="9.951" style="fill:white;fill-opacity:0.5;stroke:black;stroke-width:1px;"/>
    </g>
    <g transform="matrix(1,0,0,1,-9.91599,-9.93699)">
        <path d="M140,105.521L150,105.521L150,115.019C150,116.345 149.473,117.617 148.536,118.554C147.598,119.492 146.326,120.019 145,120.019C142.5,120.019 140,120.019 140,120.019L140,105.521Z" style="fill:white;fill-opacity:0.5;stroke:black;stroke-width:1px;"/>
    </g>
    <g transform="matrix(1,0,0,1,-9.91599,-9.93699)">
        <path d="M159.975,75.006C159.975,73.679 160.503,72.406 161.442,71.468C162.38,70.53 163.654,70.004 164.981,70.006C172.67,70.014 187.303,70.03 194.986,70.039C197.745,70.042 199.98,72.28 199.98,75.039C199.98,77.534 199.98,80.028 199.98,80.028L170.029,80.028L170.029,89.98L175,89.98L175,100L159.975,100L159.975,75.006Z" style="fill:white;fill-opacity:0.5;stroke:black;stroke-width:1px;"/>
    </g>
    <g transform="matrix(1,0,0,1,-9.91599,-9.93699)">
        <path d="M159.975,115.082C159.975,116.411 160.504,117.685 161.444,118.623C162.385,119.561 163.66,120.086 164.988,120.082C172.682,120.062 187.315,120.024 194.993,120.004C197.75,119.996 199.98,117.76 199.98,115.004C199.98,106.476 199.98,90 199.98,90L185,90L185,100L190.001,100L190.001,109.952L159.975,109.952L159.975,115.082Z" style="fill:white;fill-opacity:0.5;stroke:black;stroke-width:1px;"/>
    </g>
    <g transform="matrix(-0.999874,0,0,1,700.039,-9.95932)">
        <path d="M159.975,75.006C159.975,73.679 160.503,72.406 161.442,71.468C162.381,70.53 163.654,70.004 164.981,70.006C172.671,70.014 187.302,70.03 194.985,70.039C197.745,70.042 199.98,72.28 199.98,75.039C199.98,77.534 199.98,80.028 199.98,80.028L170.029,80.028L170.029,89.98L175,89.98L175,100L159.975,100L159.975,75.006Z" style="fill:white;fill-opacity:0.5;stroke:black;stroke-width:1px;"/>
    </g>
    <g transform="matrix(-0.999874,0,0,1,700.039,-9.95932)">
        <path d="M159.975,115.082C159.975,116.411 160.504,117.685 161.444,118.623C162.385,119.561 163.66,120.086 164.989,120.082C172.683,120.062 187.315,120.024 194.993,120.004C197.749,119.996 199.98,117.76 199.98,115.004C199.98,106.476 199.98,90 199.98,90L185,90L185,100L190.001,100L190.001,109.952L159.975,109.952L159.975,115.082Z" style="fill:white;fill-opacity:0.5;stroke:black;stroke-width:1px;"/>
    </g>
    <g transform="matrix(-1,0,0,1,450.018,-9.95054)">
        <path d="M209.915,75.04C209.91,73.711 210.434,72.435 211.372,71.493C212.309,70.551 213.584,70.021 214.913,70.021C222.601,70.017 237.213,70.01 244.893,70.007C246.22,70.006 247.492,70.533 248.43,71.471C249.368,72.408 249.896,73.68 249.896,75.007C249.896,77.516 249.896,80.028 249.896,80.028L229.934,80.028L229.934,119.989L224.934,119.989C223.608,119.989 222.336,119.462 221.399,118.525C220.461,117.587 219.934,116.315 219.934,114.989C219.934,104.264 219.934,80.014 219.934,80.014L209.934,80.014C209.934,80.014 209.925,77.53 209.915,75.04Z" style="fill:white;fill-opacity:0.5;stroke:black;stroke-width:1px;"/>
    </g>
</svg>
